<?xml version="1.0" encoding="UTF-8" standalone="no"?>
<!DOCTYPE svg PUBLIC "-//W3C//DTD SVG 1.1//EN" "http://www.w3.org/Graphics/SVG/1.1/DTD/svg11.dtd">
<!-- Created with Vectornator (http://vectornator.io/) -->
<svg height="100%" stroke-miterlimit="10" style="fill-rule:nonzero;clip-rule:evenodd;stroke-linecap:round;stroke-linejoin:round;" version="1.1" viewBox="0 0 1024 1416.55" width="100%" xml:space="preserve" xmlns="http://www.w3.org/2000/svg" xmlns:vectornator="http://vectornator.io" xmlns:xlink="http://www.w3.org/1999/xlink">
<defs>
<clipPath id="TextBounds">
<rect height="282.558" width="401.494" x="311.253" y="990.549"/>
</clipPath>
<clipPath id="TextBounds_2">
<rect height="4.78483" width="102.783" x="481.752" y="1163.55"/>
</clipPath>
</defs>
<g id="Layer-1" vectornator:layerName="Layer 1">
<path d="M604.048 288.06L505.825 195.012L175.113 519.731L175.113 834.643L175.113 834.734L404.396 834.734L404.396 672.193C404.396 642.59 416.473 615.712 435.996 596.189C455.519 576.666 482.398 564.589 511.909 564.589C541.512 564.589 568.39 576.666 587.913 596.189C607.436 615.712 619.513 642.59 619.513 672.193L619.513 834.734L848.796 834.734L848.796 519.913L604.048 288.06M419.288 864.518L160.221 864.518C151.958 864.518 145.329 857.889 145.329 849.626L145.329 513.556L145.42 513.556C145.42 509.742 146.873 505.838 149.87 502.932L495.11 163.957C500.74 158.145 510.093 157.964 515.995 163.594L873.222 502.024C876.582 504.748 878.671 508.925 878.671 513.556L878.671 849.626C878.671 857.889 872.042 864.518 863.779 864.518L604.712 864.518C596.449 864.518 589.82 857.889 589.82 849.626L589.82 672.193C589.82 650.853 581.103 631.421 566.937 617.256C552.862 603.181 533.43 594.373 512 594.373C490.661 594.373 471.229 603.09 457.063 617.256C442.988 631.33 434.18 650.763 434.18 672.193L434.18 849.626C434.18 857.889 427.461 864.518 419.288 864.518Z" fill="#f4f0ec" fill-rule="nonzero" opacity="1" stroke="none"/>
</g>
<g id="Layer-2" vectornator:layerName="Layer 2">
<g opacity="1">
<path d="M577.745 155.053C572.692 155.053 568.589 159.156 568.589 164.209C568.589 169.262 572.692 173.271 577.745 173.271C652.588 173.271 720.379 203.562 769.432 252.615C818.486 301.668 848.807 369.46 848.807 444.303C848.807 449.355 852.817 453.459 857.87 453.459C862.923 453.459 867.026 449.355 867.026 444.303C867.026 364.512 834.593 292.224 782.276 239.803C729.96 187.486 657.64 155.053 577.745 155.053Z" fill="#f4f0ec" fill-rule="nonzero" opacity="1" stroke="none"/>
<path d="M566.793 36.8444C561.951 36.8445 558.043 40.7523 558.043 45.5944C558.043 50.4366 561.951 54.3444 566.793 54.3444C680.057 54.3444 782.675 100.321 856.887 174.532C931.203 248.743 977.105 351.393 977.105 464.657C977.105 469.499 981.013 473.376 985.855 473.376C990.698 473.376 994.574 469.499 994.574 464.657C994.574 346.55 946.674 239.589 869.199 162.219C791.83 84.745 684.899 36.8444 566.793 36.8444Z" fill="#f4f0ec" fill-rule="nonzero" opacity="1" stroke="none"/>
<path d="M547.987 401.06C538.765 391.503 526.057 385.56 512 385.56C497.943 385.56 485.235 391.503 476.013 401.06C466.904 410.617 461.169 423.786 461.169 438.238C461.169 452.806 466.904 465.975 476.013 475.532C485.235 485.088 497.943 490.916 512 490.916C526.057 490.916 538.765 485.088 547.987 475.532C557.208 465.975 562.831 452.806 562.831 438.238C562.831 423.786 557.208 410.617 547.987 401.06Z" fill="#c49350" fill-rule="evenodd" opacity="1" stroke="none"/>
<path d="M511.984 371.967C493.879 371.967 477.379 379.248 465.484 391.248C453.59 403.143 446.203 419.549 446.203 437.654C446.203 446.841 448.068 455.574 451.453 463.498C454.779 471.282 459.59 478.291 465.484 484.186C477.379 496.08 493.879 503.467 511.984 503.467C530.195 503.467 546.621 496.081 558.516 484.186C570.41 472.291 577.797 455.865 577.797 437.654C577.797 419.549 570.411 403.143 558.516 391.248C546.621 379.248 530.195 371.967 511.984 371.967ZM513.297 389.217C526.455 389.217 538.353 394.585 546.984 403.217C555.616 411.848 560.891 423.758 560.891 436.811C560.891 449.969 555.616 461.866 546.984 470.498C538.353 479.13 526.455 484.373 513.297 484.373C500.139 484.373 486.929 479.974 478.297 471.342C469.771 462.71 465.734 449.969 465.734 436.811C465.734 423.758 471.083 411.849 479.609 403.217C488.241 394.585 500.139 389.217 513.297 389.217Z" fill="#f4f0ec" fill-rule="nonzero" opacity="1" stroke="none"/>
</g>
<g fill="#e1d5c9" opacity="1" stroke="none">
<path clip-path="url(#TextBounds)" d="M438.531 1099.22L448.563 1099.22L448.563 1014L438.531 1014L438.531 1099.22Z"/>
<path clip-path="url(#TextBounds)" d="M493.776 1100.36C510.793 1100.36 522.477 1088.42 522.477 1068.35L522.477 1066.58C522.477 1046.64 511.683 1035.08 493.903 1035.08C476.885 1035.08 465.327 1047.02 465.327 1066.96L465.327 1068.86C465.327 1088.93 475.995 1100.36 493.776 1100.36ZM494.029 1092.36C483.489 1092.36 475.234 1086.64 475.234 1069.12L475.234 1065.94C475.234 1051.21 482.346 1043.08 493.776 1043.08C504.062 1043.08 512.572 1048.8 512.572 1066.32L512.572 1069.5C512.572 1084.36 505.46 1092.36 494.029 1092.36Z"/>
<path clip-path="url(#TextBounds)" d="M557.403 1099.22L567.309 1099.22L567.309 1022.51L593.343 1022.51L593.343 1014L531.368 1014L531.368 1022.51L557.403 1022.51L557.403 1099.22Z"/>
<path clip-path="url(#TextBounds)" d="M324.65 1228.35L332.25 1228.35L339.15 1208.75L366.05 1208.75L373.15 1228.35L381.45 1228.35L356.95 1161.25L349.25 1161.25L324.65 1228.35ZM352.45 1171.85L352.65 1171.85L363.55 1202.05L341.45 1202.05L352.45 1171.85Z"/>
<path clip-path="url(#TextBounds)" d="M403.15 1229.15C414.05 1229.15 420.65 1223.95 420.65 1214.55C420.65 1205.95 416.75 1202.75 407.25 1200.25L402.25 1198.85C396.95 1197.35 394.85 1195.55 394.85 1191.25C394.85 1186.65 398.15 1184.35 404.85 1184.35C410.35 1184.35 415.35 1185.65 417.95 1186.95L417.95 1180.75C415.35 1179.35 411.05 1177.85 404.45 1177.85C393.05 1177.85 387.55 1183.55 387.55 1191.95C387.55 1200.35 392.45 1203.65 399.65 1205.65L404.55 1206.95C410.85 1208.75 413.15 1210.75 413.15 1215.35C413.15 1219.85 409.95 1222.65 402.05 1222.65C395.05 1222.65 391.45 1221.15 387.15 1219.55L387.15 1225.65C391.25 1227.95 396.65 1229.15 403.15 1229.15Z"/>
<path clip-path="url(#TextBounds)" d="M444.65 1229.15C455.55 1229.15 462.15 1223.95 462.15 1214.55C462.15 1205.95 458.25 1202.75 448.75 1200.25L443.75 1198.85C438.45 1197.35 436.35 1195.55 436.35 1191.25C436.35 1186.65 439.65 1184.35 446.35 1184.35C451.85 1184.35 456.85 1185.65 459.45 1186.95L459.45 1180.75C456.85 1179.35 452.55 1177.85 445.95 1177.85C434.55 1177.85 429.05 1183.55 429.05 1191.95C429.05 1200.35 433.95 1203.65 441.15 1205.65L446.05 1206.95C452.35 1208.75 454.65 1210.75 454.65 1215.35C454.65 1219.85 451.45 1222.65 443.55 1222.65C436.55 1222.65 432.95 1221.15 428.65 1219.55L428.65 1225.65C432.75 1227.95 438.15 1229.15 444.65 1229.15Z"/>
<path clip-path="url(#TextBounds)" d="M473.85 1228.35L481.45 1228.35L481.45 1178.85L473.85 1178.85L473.85 1228.35ZM473.75 1168.85L481.55 1168.85L481.55 1160.85L473.75 1160.85L473.75 1168.85Z"/>
<path clip-path="url(#TextBounds)" d="M508.85 1229.15C519.75 1229.15 526.35 1223.95 526.35 1214.55C526.35 1205.95 522.45 1202.75 512.95 1200.25L507.95 1198.85C502.65 1197.35 500.55 1195.55 500.55 1191.25C500.55 1186.65 503.85 1184.35 510.55 1184.35C516.05 1184.35 521.05 1185.65 523.65 1186.95L523.65 1180.75C521.05 1179.35 516.75 1177.85 510.15 1177.85C498.75 1177.85 493.25 1183.55 493.25 1191.95C493.25 1200.35 498.15 1203.65 505.35 1205.65L510.25 1206.95C516.55 1208.75 518.85 1210.75 518.85 1215.35C518.85 1219.85 515.65 1222.65 507.75 1222.65C500.75 1222.65 497.15 1221.15 492.85 1219.55L492.85 1225.65C496.95 1227.95 502.35 1229.15 508.85 1229.15Z"/>
<path clip-path="url(#TextBounds)" d="M553.45 1228.95C557.75 1228.95 559.85 1227.85 561.85 1226.95L561.85 1221.75C559.85 1222.35 557.55 1222.65 555.45 1222.65C549.75 1222.65 548.15 1220.75 548.15 1215.95L548.15 1185.15L560.85 1185.15L560.85 1178.85L548.15 1178.85L548.15 1167.05L540.55 1167.05L540.55 1178.85L533.45 1178.85L533.45 1185.15L540.55 1185.15L540.55 1217.15C540.55 1225.55 545.65 1228.95 553.45 1228.95Z"/>
<path clip-path="url(#TextBounds)" d="M584.85 1229.25C591.55 1229.25 595.75 1226.85 598.05 1224.05L598.55 1224.05L599.35 1228.35L605.55 1228.35L605.55 1192.45C605.55 1182.35 599.45 1177.85 588.55 1177.85C582.85 1177.85 578.05 1178.75 573.75 1180.55L573.75 1186.05C576.85 1185.15 580.75 1184.45 585.55 1184.45C594.45 1184.45 597.85 1186.45 597.85 1194.15L597.85 1199.35L584.45 1200.95C574.95 1202.05 569.35 1206.65 569.35 1215.35C569.35 1224.65 575.85 1229.25 584.85 1229.25ZM586.75 1223.25C581.05 1223.25 577.35 1220.55 577.35 1215.15C577.35 1209.45 580.35 1206.95 586.45 1206.35L597.85 1205.05L597.85 1219.65C595.75 1221.75 591.35 1223.25 586.75 1223.25Z"/>
<path clip-path="url(#TextBounds)" d="M619.95 1228.35L627.55 1228.35L627.55 1188.05C631.65 1186.15 636.85 1184.45 641.55 1184.45C649.45 1184.45 651.55 1186.95 651.55 1192.95L651.55 1228.35L659.15 1228.35L659.15 1191.35C659.15 1181.75 654.45 1177.85 644.75 1177.85C638.65 1177.85 632.25 1180.05 627.65 1183.05L627.25 1183.05L627.25 1178.75L619.95 1178.75L619.95 1228.35Z"/>
<path clip-path="url(#TextBounds)" d="M689.25 1228.95C693.55 1228.95 695.65 1227.85 697.65 1226.95L697.65 1221.75C695.65 1222.35 693.35 1222.65 691.25 1222.65C685.55 1222.65 683.95 1220.75 683.95 1215.95L683.95 1185.15L696.65 1185.15L696.65 1178.85L683.95 1178.85L683.95 1167.05L676.35 1167.05L676.35 1178.85L669.25 1178.85L669.25 1185.15L676.35 1185.15L676.35 1217.15C676.35 1225.55 681.45 1228.95 689.25 1228.95Z"/>
</g>
<g fill="#f4f0ec" opacity="1" stroke="none">
<path clip-path="url(#TextBounds_2)" d="M528.19 1272.21L538.096 1272.21L538.096 1195.51L564.131 1195.51L564.131 1187L502.155 1187L502.155 1195.51L528.19 1195.51L528.19 1272.21Z"/>
<path clip-path="url(#TextBounds_2)" d="M537.207 1425.36C547.367 1425.36 554.606 1422.18 558.416 1419.52L558.416 1412.28C552.701 1414.94 547.113 1416.98 538.731 1416.98C525.269 1416.98 517.776 1410.88 517.268 1395.13L560.194 1395.13L560.194 1389.67C560.194 1370.11 552.066 1360.08 534.794 1360.08C520.316 1360.08 507.362 1369.86 507.362 1391.83L507.362 1393.61C507.362 1413.29 517.395 1425.36 537.207 1425.36ZM534.54 1367.95C544.827 1367.95 550.034 1373.67 550.034 1387.38L517.268 1387.38C518.284 1372.53 526.666 1367.95 534.54 1367.95Z"/>
<path clip-path="url(#TextBounds_2)" d="M505.775 1576.21L516.443 1576.21L532.826 1551.07L548.828 1576.21L560.385 1576.21L539.303 1544.21L558.861 1513.22L548.32 1513.22L533.969 1537.23L518.221 1513.22L506.791 1513.22L527.238 1544.21L505.775 1576.21Z"/>
<path clip-path="url(#TextBounds_2)" d="M540.128 1728.98C545.589 1728.98 548.256 1727.58 550.796 1726.44L550.796 1719.83C548.256 1720.59 545.335 1720.98 542.668 1720.98C535.429 1720.98 533.397 1718.56 533.397 1712.47L533.397 1673.35L549.526 1673.35L549.526 1665.35L533.397 1665.35L533.397 1650.36L523.745 1650.36L523.745 1665.35L514.728 1665.35L514.728 1673.35L523.745 1673.35L523.745 1713.99C523.745 1724.66 530.222 1728.98 540.128 1728.98Z"/>
</g>
</g>
</svg>
