<?xml version="1.0" encoding="UTF-8" standalone="no"?>
<!DOCTYPE svg PUBLIC "-//W3C//DTD SVG 1.1//EN" "http://www.w3.org/Graphics/SVG/1.1/DTD/svg11.dtd">
<!-- Created with Vectornator (http://vectornator.io/) -->
<svg height="100%" stroke-miterlimit="10" style="fill-rule:nonzero;clip-rule:evenodd;stroke-linecap:round;stroke-linejoin:round;" version="1.1" viewBox="0 0 1024 1024" width="100%" xml:space="preserve" xmlns="http://www.w3.org/2000/svg" xmlns:vectornator="http://vectornator.io" xmlns:xlink="http://www.w3.org/1999/xlink">
<defs/>
<g id="Layer-1" vectornator:layerName="Layer 1">
<path d="M604.048 288.06L505.825 195.012L175.113 519.731L175.113 834.643L175.113 834.734L404.396 834.734L404.396 672.193C404.396 642.59 416.473 615.712 435.996 596.189C455.519 576.666 482.398 564.589 511.909 564.589C541.512 564.589 568.39 576.666 587.913 596.189C607.436 615.712 619.513 642.59 619.513 672.193L619.513 834.734L848.796 834.734L848.796 519.913L604.048 288.06M419.288 864.518L160.221 864.518C151.958 864.518 145.329 857.889 145.329 849.626L145.329 513.556L145.42 513.556C145.42 509.742 146.873 505.838 149.87 502.932L495.11 163.957C500.74 158.145 510.093 157.964 515.995 163.594L873.222 502.024C876.582 504.748 878.671 508.925 878.671 513.556L878.671 849.626C878.671 857.889 872.042 864.518 863.779 864.518L604.712 864.518C596.449 864.518 589.82 857.889 589.82 849.626L589.82 672.193C589.82 650.853 581.103 631.421 566.937 617.256C552.862 603.181 533.43 594.373 512 594.373C490.661 594.373 471.229 603.09 457.063 617.256C442.988 631.33 434.18 650.763 434.18 672.193L434.18 849.626C434.18 857.889 427.461 864.518 419.288 864.518Z" fill="#011627" fill-rule="nonzero" opacity="1" stroke="none"/>
</g>
<g id="Layer-2" vectornator:layerName="Layer 2">
<g opacity="1">
<path d="M577.745 155.053C572.692 155.053 568.589 159.156 568.589 164.209C568.589 169.262 572.692 173.271 577.745 173.271C652.588 173.271 720.379 203.562 769.432 252.615C818.486 301.668 848.807 369.46 848.807 444.303C848.807 449.355 852.817 453.459 857.87 453.459C862.923 453.459 867.026 449.355 867.026 444.303C867.026 364.512 834.593 292.224 782.276 239.803C729.96 187.486 657.64 155.053 577.745 155.053Z" fill="#011627" fill-rule="nonzero" opacity="1" stroke="none"/>
<path d="M566.793 36.8444C561.951 36.8445 558.043 40.7523 558.043 45.5944C558.043 50.4366 561.951 54.3444 566.793 54.3444C680.057 54.3444 782.675 100.321 856.887 174.532C931.203 248.743 977.105 351.393 977.105 464.657C977.105 469.499 981.013 473.376 985.855 473.376C990.698 473.376 994.574 469.499 994.574 464.657C994.574 346.55 946.674 239.589 869.199 162.219C791.83 84.745 684.899 36.8444 566.793 36.8444Z" fill="#011627" fill-rule="nonzero" opacity="1" stroke="none"/>
<path d="M547.987 401.06C538.765 391.503 526.057 385.56 512 385.56C497.943 385.56 485.235 391.503 476.013 401.06C466.904 410.617 461.169 423.786 461.169 438.238C461.169 452.806 466.904 465.975 476.013 475.532C485.235 485.088 497.943 490.916 512 490.916C526.057 490.916 538.765 485.088 547.987 475.532C557.208 465.975 562.831 452.806 562.831 438.238C562.831 423.786 557.208 410.617 547.987 401.06Z" fill="#ff9f1c" fill-rule="evenodd" opacity="1" stroke="none"/>
<path d="M511.984 371.967C493.879 371.967 477.379 379.248 465.484 391.248C453.59 403.143 446.203 419.549 446.203 437.654C446.203 446.841 448.068 455.574 451.453 463.498C454.779 471.282 459.59 478.291 465.484 484.186C477.379 496.08 493.879 503.467 511.984 503.467C530.195 503.467 546.621 496.081 558.516 484.186C570.41 472.291 577.797 455.865 577.797 437.654C577.797 419.549 570.411 403.143 558.516 391.248C546.621 379.248 530.195 371.967 511.984 371.967ZM513.297 389.217C526.455 389.217 538.353 394.585 546.984 403.217C555.616 411.848 560.891 423.758 560.891 436.811C560.891 449.969 555.616 461.866 546.984 470.498C538.353 479.13 526.455 484.373 513.297 484.373C500.139 484.373 486.929 479.974 478.297 471.342C469.771 462.71 465.734 449.969 465.734 436.811C465.734 423.758 471.083 411.849 479.609 403.217C488.241 394.585 500.139 389.217 513.297 389.217Z" fill="#011627" fill-rule="nonzero" opacity="1" stroke="none"/>
</g>
</g>
</svg>
